<svg width="383" height="82" fill="none" xmlns="http://www.w3.org/2000/svg"><path d="m11.81 42.393 2.044-11.664h12.539c5.936 0 10.584-1.596 14.07-4.841 3.486-3.245 5.197-7.716 5.197-13.278C45.66 4.47 39.607 0 30.122 0H0c1.693 8.167 10.017 8.942 15.502 9.429H5.873L0 42.393h11.81zm5.773-32.964h10.764c3.612 0 5.387 1.595 5.387 4.84 0 4.408-2.874 7.04-7.098 7.04H15.502l2.081-11.88zM69.91 64.36H91.6c-3.55.135-8.756.81-11.323 3.425a2.504 2.504 0 0 1-.748.523c-2.504 2.433-5.936 3.822-9.8 3.822-6.666 0-10.828-4.102-10.828-10.952 0-7.383 7.981-13.179 15.043-13.206 3.703-.144 8.251-.441 11.837-2.172 2.981-1.442 5.557-4.67 5.81-8.077l-16.728-.027C61.361 37.67 46.67 47.504 46.67 62.043 46.67 75.068 56.28 82 68.63 82c11.387 0 21.025-5.769 25.322-16.406 1.035-2.568 1.837-5.994 2.45-10.221H71.45l-1.54 8.987z" fill="#001C3F"/><path d="m43.111 38.76-17.384-.207c11.71-2.029 25.86-10.97 31.14-30.188l-4.153 23.382 17.385.207c-11.71 2.028-25.862 10.97-31.14 30.188L43.11 38.76z" fill="#EC9527"/><path d="m130.539 32.694 1.442-8.203h6.855c3.242 0 5.791-.874 7.692-2.641 1.91-1.776 2.847-4.219 2.847-7.265 0-4.453-3.315-6.896-8.495-6.896h-12.34l-4.45 25.005h6.449zm3.477-19.858h5.891c1.973 0 2.946.874 2.946 2.641 0 2.407-1.576 3.849-3.882 3.849h-6.09l1.135-6.49zm29.474 1.073c-2.243 0-4.153.874-5.792 2.64l.27-2.343h-5.324l-3.314 18.479h6.125l1.468-8.24c.568-3.181 2.639-5.119 5.684-5.119h1.811l.972-5.426h-1.9v.009zm13.682-.136c-3.45 0-6.26 1.037-8.494 3.11-2.243 2.046-3.342 4.75-3.342 8.068 0 2.578.874 4.588 2.64 6.03 1.774 1.442 4.116 2.145 6.963 2.145 5.656 0 9.268-2.109 10.836-6.291h-6.459c-.9 1.307-2.207 1.938-3.981 1.938-2.378 0-3.882-1.208-3.882-3.579v-.297h14.754l.27-1.704c.505-2.948-.135-5.255-1.909-6.896-1.775-1.685-4.216-2.524-7.396-2.524zm-5.188 7.536c.667-2.11 2.54-3.452 4.918-3.452 2.639 0 3.883 1.307 3.612 3.452h-8.53zm43.823-7.536c-2.811 0-5.117 1.172-6.891 3.516-1.171-2.344-3.315-3.516-6.387-3.516-2.342 0-4.278.803-5.855 2.407l.234-1.974h-5.323l-3.315 18.479h6.125l1.676-9.14c.405-2.678 2.243-4.453 4.549-4.453 2.17 0 3.107 1.577 2.711 4.155l-1.703 9.438h6.126l1.675-9.14c.433-2.678 2.243-4.453 4.549-4.453 2.171 0 3.108 1.577 2.675 4.155l-1.675 9.438h6.125l1.811-10.042c.504-2.641.036-4.786-1.342-6.427-1.379-1.64-3.288-2.443-5.765-2.443zm19.871 19.353c3.513 0 6.386-1 8.665-3.046 2.279-2.047 3.414-4.688 3.414-7.969 0-2.578-.901-4.588-2.711-6.093-1.811-1.506-4.153-2.245-7.026-2.245-3.477 0-6.36 1-8.63 3.047-2.279 2.046-3.414 4.687-3.414 8.005 0 2.577.901 4.624 2.676 6.093 1.81 1.47 4.152 2.208 7.026 2.208zm.504-4.957c-2.513 0-3.918-1.37-3.918-3.813 0-1.64.504-3.01 1.504-4.048 1.036-1.036 2.306-1.577 3.81-1.577 2.405 0 3.883 1.37 3.883 3.885 0 1.64-.505 2.984-1.541 4.02-.991 1.037-2.234 1.533-3.738 1.533zM137.962 68.299l1-5.328h-13.385l.837-4.75h12.179l.838-4.922h-12.143l.802-4.687h13.385l.901-5.327h-19.772l-4.45 25.004h19.808v.01zm18.628-18.92c-2.405 0-4.413.801-6.053 2.442l.234-2.01h-5.323l-3.315 18.478h6.125l1.676-9.14c.405-2.677 2.378-4.453 4.783-4.453 2.243 0 3.216 1.578 2.774 4.156l-1.639 9.437h6.125l1.774-10.041c.505-2.641.037-4.786-1.342-6.427-1.369-1.64-3.305-2.443-5.819-2.443zm22.078 0c-3.45 0-6.251 1.036-8.494 3.109-2.243 2.046-3.342 4.75-3.342 8.068 0 2.577.874 4.588 2.639 6.03 1.775 1.442 4.117 2.145 6.954 2.145 5.657 0 9.269-2.11 10.837-6.292h-6.459c-.901 1.307-2.207 1.938-3.981 1.938-2.378 0-3.883-1.207-3.883-3.578V60.5h14.755l.27-1.703c.505-2.948-.135-5.255-1.909-6.896-1.766-1.685-4.207-2.524-7.387-2.524zm-5.179 7.535c.666-2.11 2.54-3.453 4.918-3.453 2.639 0 3.882 1.308 3.612 3.453h-8.53zm30.437-7.4c-2.243 0-4.153.874-5.792 2.64l.27-2.343h-5.323l-3.315 18.478h6.125l1.468-8.238c.568-3.182 2.64-5.12 5.684-5.12h1.811l.973-5.427h-1.901v.01zm18.898 2.65c-1.27-1.84-3.243-2.777-5.954-2.777-3.044 0-5.621 1.073-7.792 3.182-2.17 2.11-3.242 4.687-3.242 7.734 0 2.443.837 4.318 2.513 5.625 1.675 1.307 3.711 1.938 6.152 1.938 2.144 0 4.018-.604 5.621-1.776l-.171.802c-.37 2.11-1.775 3.38-4.018 3.38h-10.205l-.874 4.688h11.341c5.557 0 8.764-2.407 9.602-7.265l3.143-17.875h-5.656l-.46 2.343zm-6.828 11.078c-2.378 0-3.918-1.307-3.918-3.579 0-1.577.504-2.848 1.504-3.813 1-1 2.279-1.505 3.784-1.505 2.405 0 3.945 1.406 3.945 3.578 0 1.506-.504 2.75-1.504 3.786-1 1.028-2.27 1.533-3.811 1.533zm29.375-4.453c-.433 2.677-2.243 4.39-4.648 4.39-2.243 0-3.216-1.578-2.712-4.156l1.64-9.275h-6.126l-1.639 9.275c-.504 2.578-.063 4.723 1.306 6.364 1.369 1.64 3.279 2.479 5.792 2.479 2.144 0 3.982-.667 5.486-2.01l-.198.937c-.406 2.11-2.009 3.48-4.117 3.48h-9.269l-.874 4.687h10.368c5.45 0 8.801-2.578 9.504-7.265l3.242-17.947h-6.125l-1.63 9.04zm35.472.297h6.792c-1.234 2.641-3.81 4.255-6.891 4.255-3.648 0-5.918-2.245-5.918-5.995 0-2.514.766-4.588 2.279-6.291 1.504-1.704 3.513-2.578 5.954-2.578 2.639 0 4.351 1.109 5.188 3.28h7.027c-1.036-5.525-5.153-8.905-11.711-8.905-4.413 0-8.098 1.406-11.043 4.255-2.91 2.848-4.387 6.39-4.387 10.708 0 3.317 1.108 5.995 3.315 7.969 2.243 1.974 5.116 2.947 8.701 2.947 4.856 0 8.666-1.676 11.44-5.02 1.036-1.236 1.838-2.543 2.405-3.949.568-1.406 1-3.28 1.343-5.588H281.69l-.847 4.912zm29.609-9.573c-2.243 0-4.153.875-5.792 2.641l.27-2.343h-5.324l-3.315 18.478h6.126l1.468-8.238c.567-3.182 2.639-5.12 5.684-5.12h1.81l.973-5.427h-1.9v.01zm11.538 19.218c3.513 0 6.387-1 8.666-3.047 2.279-2.046 3.414-4.687 3.414-7.968 0-2.578-.901-4.588-2.712-6.093-1.81-1.506-4.152-2.245-7.026-2.245-3.477 0-6.359 1-8.629 3.047-2.279 2.046-3.414 4.687-3.414 8.004 0 2.578.901 4.624 2.675 6.094 1.811 1.469 4.153 2.208 7.026 2.208zm.505-4.958c-2.513 0-3.918-1.37-3.918-3.812 0-1.641.504-3.011 1.504-4.048 1.036-1.036 2.306-1.577 3.81-1.577 2.405 0 3.882 1.37 3.882 3.885 0 1.64-.504 2.984-1.54 4.02-1 1.037-2.234 1.532-3.738 1.532zm28.095-4.75c-.504 2.641-2.306 4.417-4.684 4.417-2.171 0-3.108-1.578-2.675-4.155l1.675-9.474h-6.125l-1.775 10.077c-.504 2.678-.063 4.823 1.27 6.427 1.37 1.605 3.279 2.407 5.756 2.407 2.306 0 4.279-.802 5.955-2.407l-.235 1.974h5.315l3.315-18.478h-6.153l-1.639 9.212zm23.852-9.645c-2.576 0-4.684.839-6.26 2.515l.234-2.073h-5.35l-4.45 25.14h6.125l1.54-8.572c1.343 1.577 3.144 2.343 5.45 2.343 3.18 0 5.855-1.072 8.026-3.245 2.171-2.172 3.243-4.858 3.243-8.004 0-2.407-.874-4.354-2.576-5.86-1.703-1.505-3.712-2.244-5.982-2.244zm-3.008 14.395c-2.441 0-3.946-1.442-3.946-3.75 0-1.54.505-2.875 1.505-3.984 1.036-1.135 2.342-1.703 3.918-1.703 2.378 0 3.883 1.406 3.883 3.786 0 1.64-.505 3.01-1.541 4.083-1.045 1.037-2.315 1.568-3.819 1.568z" fill="#001C3F"/></svg>