<svg width="383" height="82" viewBox="0 0 383 82" fill="none" xmlns="http://www.w3.org/2000/svg">
<path d="M11.8091 42.3926L13.8539 30.7286H26.3927C32.3288 30.7286 36.9767 29.133 40.4627 25.888C43.9487 22.643 45.6602 18.1721 45.6602 12.6105C45.6602 4.47091 39.607 0 30.1219 0H17.5831H7.54849H0C1.69345 8.16663 10.0166 8.94182 15.5023 9.42858H5.87306L0 42.3926H11.8091ZM17.5831 9.42858H28.3473C31.9594 9.42858 33.734 11.024 33.734 14.2691C33.734 18.6769 30.8605 21.309 26.6359 21.309H15.5023L17.5831 9.42858Z" fill="#001C3F"/>
<path d="M69.9099 64.3596H79.8905H82.3316H91.6005C88.0515 64.4948 82.845 65.1709 80.2778 67.7849C80.0436 68.0193 79.7914 68.1905 79.5301 68.3077C77.026 70.7415 73.594 72.1296 69.7297 72.1296C63.064 72.1296 58.9024 68.0283 58.9024 61.1777C58.9024 53.7952 66.8833 47.9993 73.9454 47.9722C77.6476 47.828 82.1964 47.5305 85.7815 45.7999C88.7631 44.3576 91.3393 41.1306 91.5915 37.7234L74.8641 37.6963C61.3615 37.6693 46.6699 47.5035 46.6699 62.043C46.6699 75.0682 56.2812 81.9998 68.6308 81.9998C80.0166 81.9998 89.6548 76.231 93.9515 65.5945C94.9874 63.0255 95.7891 59.6002 96.4017 55.3727H71.4502L69.9099 64.3596Z" fill="#001C3F"/>
<path d="M43.1115 38.7598L25.7266 38.5525C37.4366 36.5243 51.5878 27.5825 56.8663 8.36475L52.7138 31.7469L70.0987 31.9543C58.3886 33.9824 44.2375 42.9242 38.9589 62.1419L43.1115 38.7598Z" fill="#EC9527"/>
<path d="M130.539 32.6937L131.981 24.4909H138.836C142.078 24.4909 144.627 23.6166 146.528 21.8499C148.438 20.0741 149.375 17.6313 149.375 14.5846C149.375 10.1317 146.06 7.68896 140.88 7.68896H128.54L124.09 32.6937H130.539ZM134.016 12.8359H139.907C141.88 12.8359 142.853 13.7103 142.853 15.477C142.853 17.8837 141.277 19.326 138.971 19.326H132.881L134.016 12.8359ZM163.49 13.9086C161.247 13.9086 159.337 14.7829 157.698 16.5497L157.968 14.2061H152.644L149.33 32.6846H155.455L156.923 24.4459C157.491 21.264 159.562 19.326 162.607 19.326H164.418L165.39 13.8996H163.49V13.9086ZM177.172 13.7734C173.722 13.7734 170.912 14.81 168.678 16.8832C166.435 18.9293 165.336 21.6335 165.336 24.9507C165.336 27.5287 166.21 29.5388 167.976 30.981C169.75 32.4232 172.092 33.1263 174.939 33.1263C180.595 33.1263 184.207 31.0171 185.775 26.8346H179.316C178.416 28.1416 177.109 28.7726 175.335 28.7726C172.957 28.7726 171.453 27.5647 171.453 25.1941V24.8966H186.207L186.477 23.1929C186.982 20.2454 186.342 17.9378 184.568 16.2973C182.793 14.6117 180.352 13.7734 177.172 13.7734ZM171.984 21.309C172.651 19.1998 174.524 17.8567 176.902 17.8567C179.541 17.8567 180.785 19.1637 180.514 21.309H171.984ZM215.807 13.7734C212.996 13.7734 210.69 14.9452 208.916 17.2888C207.745 14.9452 205.601 13.7734 202.529 13.7734C200.187 13.7734 198.251 14.5756 196.674 16.1801L196.908 14.2061H191.585L188.27 32.6846H194.395L196.071 23.5445C196.476 20.8673 198.314 19.0916 200.62 19.0916C202.79 19.0916 203.727 20.669 203.331 23.247L201.628 32.6846H207.754L209.429 23.5445C209.862 20.8673 211.672 19.0916 213.978 19.0916C216.149 19.0916 217.086 20.669 216.653 23.247L214.978 32.6846H221.103L222.914 22.6431C223.418 20.002 222.95 17.8567 221.572 16.2161C220.193 14.5756 218.284 13.7734 215.807 13.7734ZM235.678 33.1263C239.191 33.1263 242.064 32.1258 244.343 30.0796C246.622 28.0334 247.757 25.3924 247.757 22.1113C247.757 19.5333 246.856 17.5232 245.046 16.0179C243.235 14.5125 240.893 13.7734 238.02 13.7734C234.543 13.7734 231.66 14.7739 229.39 16.8201C227.111 18.8662 225.976 21.5073 225.976 24.8245C225.976 27.4024 226.877 29.4486 228.652 30.9179C230.462 32.3872 232.804 33.1263 235.678 33.1263ZM236.182 28.1686C233.669 28.1686 232.264 26.7985 232.264 24.3558C232.264 22.7152 232.768 21.3451 233.768 20.3085C234.804 19.2719 236.074 18.7311 237.578 18.7311C239.983 18.7311 241.461 20.1012 241.461 22.6161C241.461 24.2566 240.956 25.5997 239.92 26.6363C238.929 27.6729 237.686 28.1686 236.182 28.1686Z" fill="#001C3F"/>
<path d="M137.962 68.2985L138.962 62.9712H125.577L126.414 58.2209H138.593L139.431 53.2992H127.288L128.09 48.612H141.475L142.376 43.2848H122.604L118.154 68.2894H137.962V68.2985ZM156.59 49.3782C154.185 49.3782 152.177 50.1804 150.537 51.8209L150.771 49.8108H145.448L142.133 68.2894H148.258L149.934 59.1493C150.339 56.4721 152.312 54.6964 154.717 54.6964C156.96 54.6964 157.933 56.2738 157.491 58.8518L155.852 68.2894H161.977L163.751 58.2479C164.256 55.6068 163.788 53.4615 162.409 51.8209C161.04 50.1804 159.104 49.3782 156.59 49.3782ZM178.668 49.3782C175.218 49.3782 172.417 50.4148 170.174 52.488C167.931 54.5341 166.832 57.2383 166.832 60.5555C166.832 63.1334 167.706 65.1436 169.471 66.5858C171.246 68.028 173.588 68.7311 176.425 68.7311C182.082 68.7311 185.694 66.6219 187.262 62.4394H180.803C179.902 63.7464 178.596 64.3774 176.822 64.3774C174.444 64.3774 172.939 63.1695 172.939 60.7988V60.5014H187.694L187.964 58.7977C188.469 55.8502 187.829 53.5426 186.055 51.9021C184.289 50.2165 181.848 49.3782 178.668 49.3782ZM173.489 56.9138C174.155 54.8046 176.029 53.4615 178.407 53.4615C181.046 53.4615 182.289 54.7685 182.019 56.9138H173.489ZM203.926 49.5134C201.683 49.5134 199.773 50.3877 198.134 52.1544L198.404 49.8108H193.081L189.766 68.2894H195.891L197.359 60.0507C197.927 56.8687 199.999 54.9308 203.043 54.9308H204.854L205.827 49.5043H203.926V49.5134ZM222.824 52.1635C221.554 50.3246 219.581 49.3872 216.87 49.3872C213.826 49.3872 211.249 50.4598 209.078 52.5691C206.908 54.6784 205.836 57.2564 205.836 60.3031C205.836 62.7459 206.673 64.6208 208.349 65.9278C210.024 67.2348 212.06 67.8657 214.501 67.8657C216.645 67.8657 218.519 67.2618 220.122 66.09L219.951 66.8923C219.581 69.0015 218.176 70.2725 215.933 70.2725H205.728L204.854 74.9597H216.195C221.752 74.9597 224.959 72.553 225.797 67.6945L228.94 49.8199H223.284L222.824 52.1635ZM215.996 63.2416C213.618 63.2416 212.078 61.9346 212.078 59.6631C212.078 58.0856 212.582 56.8147 213.582 55.8502C214.582 54.8497 215.861 54.3448 217.366 54.3448C219.771 54.3448 221.311 55.751 221.311 57.9234C221.311 59.4287 220.807 60.6727 219.807 61.7093C218.807 62.7369 217.537 63.2416 215.996 63.2416ZM245.371 58.7887C244.938 61.4658 243.128 63.1785 240.723 63.1785C238.48 63.1785 237.507 61.6011 238.011 59.0231L239.651 49.7477H233.525L231.886 59.0231C231.382 61.6011 231.823 63.7464 233.192 65.3869C234.561 67.0274 236.471 67.8657 238.984 67.8657C241.128 67.8657 242.966 67.1987 244.47 65.8557L244.272 66.7931C243.866 68.9023 242.263 70.2725 240.155 70.2725H230.886L230.012 74.9597H240.38C245.83 74.9597 249.181 72.3817 249.884 67.6945L253.126 49.7477H247.001L245.371 58.7887ZM280.843 59.0862H287.635C286.401 61.7273 283.825 63.3408 280.744 63.3408C277.096 63.3408 274.826 61.0963 274.826 57.3465C274.826 54.8316 275.592 52.7584 277.105 51.0548C278.609 49.3511 280.618 48.4768 283.059 48.4768C285.698 48.4768 287.41 49.5855 288.247 51.7578H295.274C294.238 46.2323 290.121 42.8521 283.563 42.8521C279.15 42.8521 275.465 44.2583 272.52 47.1067C269.61 49.9551 268.133 53.4976 268.133 57.8152C268.133 61.1324 269.241 63.8095 271.448 65.7835C273.691 67.7576 276.564 68.7311 280.149 68.7311C285.005 68.7311 288.815 67.0545 291.589 63.7103C292.625 62.4754 293.427 61.1684 293.994 59.7622C294.562 58.356 294.994 56.4811 295.337 54.1736H281.69L280.843 59.0862ZM310.452 49.5134C308.209 49.5134 306.299 50.3877 304.66 52.1544L304.93 49.8108H299.606L296.291 68.2894H302.417L303.885 60.0507C304.452 56.8687 306.524 54.9308 309.569 54.9308H311.379L312.352 49.5043H310.452V49.5134ZM321.99 68.7311C325.503 68.7311 328.377 67.7306 330.656 65.6844C332.935 63.6382 334.07 60.9972 334.07 57.7161C334.07 55.1381 333.169 53.128 331.358 51.6227C329.548 50.1173 327.206 49.3782 324.332 49.3782C320.855 49.3782 317.973 50.3787 315.703 52.4249C313.424 54.471 312.289 57.1121 312.289 60.4292C312.289 63.0072 313.19 65.0534 314.964 66.5227C316.775 67.992 319.117 68.7311 321.99 68.7311ZM322.495 63.7734C319.982 63.7734 318.577 62.4033 318.577 59.9606C318.577 58.32 319.081 56.9499 320.081 55.9133C321.117 54.8767 322.387 54.3359 323.891 54.3359C326.296 54.3359 327.773 55.706 327.773 58.2209C327.773 59.8614 327.269 61.2045 326.233 62.2411C325.233 63.2777 323.999 63.7734 322.495 63.7734ZM350.59 59.0231C350.086 61.6642 348.284 63.4399 345.906 63.4399C343.735 63.4399 342.798 61.8625 343.231 59.2845L344.906 49.8108H338.781L337.006 59.8884C336.502 62.5656 336.943 64.7109 338.276 66.3154C339.646 67.9199 341.555 68.7221 344.032 68.7221C346.338 68.7221 348.311 67.9199 349.987 66.3154L349.752 68.2894H355.067L358.382 49.8108H352.229L350.59 59.0231ZM374.442 49.3782C371.866 49.3782 369.758 50.2165 368.182 51.8931L368.416 49.8199H363.066L358.616 74.9597H364.741L366.281 66.3875C367.624 67.9649 369.425 68.7311 371.731 68.7311C374.911 68.7311 377.586 67.6585 379.757 65.4861C381.928 63.3137 383 60.6276 383 57.4817C383 55.075 382.126 53.128 380.424 51.6227C378.721 50.1173 376.712 49.3782 374.442 49.3782ZM371.434 63.7734C368.993 63.7734 367.488 62.3312 367.488 60.0237C367.488 58.4823 367.993 57.1482 368.993 56.0395C370.029 54.9037 371.335 54.3359 372.911 54.3359C375.289 54.3359 376.794 55.742 376.794 58.1217C376.794 59.7622 376.289 61.1324 375.253 62.205C374.208 63.2416 372.938 63.7734 371.434 63.7734Z" fill="#001C3F"/>
</svg>
