<svg width="115" height="115" viewBox="0 0 115 115" fill="none" xmlns="http://www.w3.org/2000/svg">
<path d="M45.9873 63.6333C45.9873 62.5287 45.0919 61.6333 43.9873 61.6333H29.181C26.0629 61.6333 25.0022 60.6699 24.7496 60.1123C24.495 59.5508 24.4717 58.1095 26.5184 55.7493C26.5198 55.7476 26.5213 55.7459 26.5227 55.7442L62.7859 14.547C62.7861 14.5468 62.7863 14.5466 62.7865 14.5464C64.0132 13.154 65.0827 12.3245 65.9261 11.9086C66.7611 11.4968 67.2134 11.5592 67.4164 11.6354C67.6183 11.7112 67.9976 11.9598 68.3515 12.8163C68.7095 13.6824 68.9644 15.0097 68.9644 16.8666V51.3666C68.9644 52.4712 69.8598 53.3666 70.9644 53.3666H85.7706C88.9112 53.3666 89.9831 54.341 90.2369 54.9031C90.49 55.4633 90.5115 56.9042 88.4422 59.2405L88.4381 59.2452L52.1657 100.453C50.9388 101.846 49.8691 102.675 49.0256 103.091C48.1906 103.503 47.7383 103.441 47.5353 103.365C47.3334 103.289 46.954 103.04 46.6001 102.184C46.2422 101.317 45.9873 99.9902 45.9873 98.1333V63.6333Z" stroke="#EC9527" stroke-width="4" stroke-miterlimit="10" stroke-linecap="round" stroke-linejoin="round"/>
</svg>
